<?xml version="1.0" encoding="utf-8"?>
<!-- Generator: Adobe Illustrator 22.1.0, SVG Export Plug-In . SVG Version: 6.00 Build 0)  -->
<svg version="1.1" id="图层_1" xmlns="http://www.w3.org/2000/svg" xmlns:xlink="http://www.w3.org/1999/xlink" x="0px" y="0px"
	 viewBox="0 0 504 470" style="enable-background:new 0 0 504 470;" xml:space="preserve">
<style type="text/css">
	.st0{fill:#D31B1A;}
	.st1{fill:#0D1633;}
</style>
<path class="st0" d="M83.9,405.9c-1-16.2,1.6-19.7,15.5-23.1c33.8-8.4,67.7-16.5,101.4-25.4c23.5-6.2,33.1-19.8,31.4-43.1
	c-76.7,0-153.5,0-232.3,0c8.6-15.5,16.3-29.2,23.9-43c11.4-20.6,23.2-41.1,34.1-62c4.5-8.6,10.6-11.7,20.2-11.6
	c32.4,0.4,64.8,0.4,97.1,0c7.8-0.1,12.6,2.7,16.4,9.3c9.4,16.1,23.6,25.8,43.1,30.4c0-4.3,0-7.5,0-10.6c0-24.3,0-48.6,0-72.9
	c0-17.8-11.7-30.8-29.7-31.7c-7.9-0.4-10.1-3.2-9.9-10.4c0.4-12,0.1-24,0.1-35.9c0-8,4.1-11.8,12-11.8c30.1,0,60.2,0,90.3,0
	c8,0,12.2,3.9,12.4,11.6c0.3,12.6,0,25.3,0.1,37.9c0,6.1-2.9,8.1-8.9,8.5c-19.9,1.4-29.9,12.8-29.9,32.8c0,23.6,0,47.3,0,70.9
	c0,3.5,0,6.9,0,11.4c19.3-4.5,32.8-14.9,42.3-30.3c4.1-6.7,8.9-9.1,16.5-9c33,0.3,66.1,0.2,99.1,0c7.1,0,12.4,2.1,16,8.6
	c18.9,34.2,38,68.4,57.1,102.5c0.6,1.1,0.9,2.4,1.8,4.9c-77.5,0-154.2,0-230.8,0c-2.6,19.2,5.7,35.1,23.2,40.8
	c19.9,6.5,40.5,10.9,60.8,16.1c15.9,4.1,31.9,7.9,47.9,11.9c15.1,3.7,16.9,6.3,15.5,23.2C308.6,405.9,196.5,405.9,83.9,405.9z"/>
</svg>
